# xmcd CD database file
#
# Track frame offsets:
#	150
#	22655
#	41722
#	51969
#	71886
#	89266
#	101480
#	121875
#	132527
#	145296
#	160318
#	169978
#
# Disc length: 2424 seconds
#
# Revision: 1
# Processed by: cddbd v1.5.2PL0 Copyright (c) Steve Scherf et al.
# Submitted via: CDex 1.51
#
DISCID=a909760c
DTITLE=Various Artist - 100% Country CD 8
DYEAR=2006
DGENRE=Country
TTITLE0=Country favoritter - Vidar Lønn Arnesen
TTITLE1=Morgan Kane - Benny Borg
TTITLE2=Give me a hundred reasons - Ann Jones
TTITLE3=Chained to the wheel - John Denver
TTITLE4=Den du ville ha - Ottar Big Hand Johansen
TTITLE5=Cold Cold Heart - Hank Williams
TTITLE6=Country Girl - Marianne Flynner
TTITLE7=All I have to do is dream - Everly Brothers
TTITLE8=Pick up the phone - Heidi Hauge
TTITLE9=Wake up yesterday - PE-TO Bandet
TTITLE10=Drop dead - Tex Williams
TTITLE11=Rose of my heart - Bill Haley
EXTD=YEAR: 2006
EXTT0=
EXTT1=
EXTT2=
EXTT3=
EXTT4=
EXTT5=
EXTT6=
EXTT7=
EXTT8=
EXTT9=
EXTT10=
EXTT11=
PLAYORDER=
